<svg xmlns="http://www.w3.org/2000/svg" viewBox="0 0 202.94 256.92"><g id="图层_2" data-name="图层 2"><g id="图层_1-2" data-name="图层 1"><path d="M91.13,143.67c-1.66-.19-3.48,0-4.94-.65C76.48,138.72,70,131.78,67.89,121c-4.28-22.26,9.35-41.08,29.48-47.28,16.56-5.11,32.12-3.74,46.72,4.8,14.83,8.69,24.15,21.94,26,39.3,1.18,11.23,1.24,22.53-3.12,33.51a62.94,62.94,0,0,1-25,30.21c-19.55,12.73-40.52,15.58-62.66,8.78-16.2-5-28.7-14.71-37.08-29.86-6.95-12.57-9-25.92-8.91-39.92.1-27.85.17-55.7,0-83.54,0-5.34,2-7.88,7.19-8.82,15.66-2.79,30.89-7.1,44.5-15.64,4.76-3,9-6.86,13.22-10.57,2.58-2.25,4.87-2.8,7.4-.26C117.19,13.28,132,18.83,147,23.93c6.13,2.08,11.94,5.19,18.16,6.85,7.32,2,14.91,2.88,22.4,4.18a33.24,33.24,0,0,0,4,.1c10.59.48,11.41,1.82,11.2,12.26-.3,14.82.1,29.66.12,44.49,0,21.68,0,43.36,0,65,0,10.51-2.71,20.44-6.69,30-5.76,13.81-16.48,23.58-27.77,32.8-4.52,3.68-8.62,8-13.5,11.07-8.54,5.39-17.43,10.27-26.4,14.92-7.09,3.68-14.56,6.59-21.77,10.05a10.6,10.6,0,0,1-10.46-.3C76.22,244.28,55.65,233.89,36,222,12.3,207.63.33,185.92.27,157.94Q.17,100.16,0,42.38C0,37.6,2.23,34.88,6.83,34c2.94-.57,5.92-1,8.85-1.6,3.82-.81,5.23.93,5.23,4.53q0,46,0,92c0,8.5.4,17,0,25.51-1,21.91,9.44,37.49,27,49.1q24.94,16.53,50.25,32.51a8,8,0,0,0,6.79.1c11.51-6.25,22.83-12.85,34.16-19.45,14.22-8.3,27.24-18,35.56-32.68,4.62-8.19,6.48-17.18,6.54-26.42.21-33.18.14-66.37.23-99.56,0-4.52-2.11-6.46-6.5-7.16-13.13-2.11-26.53-3.46-39.2-7.19C126,40.86,117,35.2,108.18,30.06c-4.46-2.59-7.7-2.9-12.36-.49a182.05,182.05,0,0,1-23,9.55A161.56,161.56,0,0,1,55,43.8c-3.67.83-5.58,2.86-5.55,6.56.2,27.84-.94,55.78,1.13,83.49C52,153.22,62.27,169.6,81.29,177.4c23.79,9.76,51.39,3.25,66.07-18.8,9.26-13.92,11.6-29.26,7.11-44.93-3.64-12.66-12-22.39-25.38-26.13-13.65-3.83-27.09-3.15-38.15,6.71C78.33,105.49,76.14,119,83.73,134c1.69,3.34,5.18,5.78,7.85,8.63Z" style="fill:#cea072"/><path d="M62.51,138.49c1.82,2.4,3.77,4.71,5.45,7.21,8.45,12.57,20.63,17,35.14,12.57,11.12-3.36,19.3-15,18.88-26.32-.22-5.83-3.64-9.33-7.56-12.84-1.07-1-1.53-2.61-2.27-4,1.36-.42,2.87-1.46,4-1.17,5.68,1.45,12.28,1.92,16.67,5.23,6.78,5.12,7.49,13.56,6.72,21.84-1.46,15.81-15.12,28-32.54,29.33-21,1.62-39.23-12.2-45-28a19,19,0,0,1-.6-3.23Z" style="fill:#cea072"/></g></g></svg>